<?xml version="1.0" encoding="iso-8859-1"?>
<!-- Generator: Adobe Illustrator 19.0.0, SVG Export Plug-In . SVG Version: 6.00 Build 0)  -->
<svg version="1.1" id="Layer_1" xmlns="http://www.w3.org/2000/svg" xmlns:xlink="http://www.w3.org/1999/xlink" x="0px" y="0px"
	 viewBox="0 0 512 512" style="enable-background:new 0 0 512 512;" xml:space="preserve">
<path style="fill:#7ACBFF;" d="M450.696,501.801H61.304c-28.224,0-51.105-22.881-51.105-51.105V61.304
	c0-28.224,22.881-51.105,51.105-51.105h389.392c28.223,0,51.104,22.881,51.104,51.105v389.392
	C501.801,478.92,478.92,501.801,450.696,501.801z"/>
<rect x="86.693" y="151.091" style="fill:#FFF1B8;" width="338.614" height="209.818"/>
<g>
	<path style="fill:#0B6699;" d="M450.697,512H61.303C27.501,512,0,484.499,0,450.697V61.303C0,27.501,27.501,0,61.303,0h389.392
		C484.499,0,512,27.501,512,61.303v389.392C512,484.499,484.499,512,450.697,512z M61.303,20.398
		c-22.555,0-40.905,18.35-40.905,40.905v389.392c0,22.556,18.35,40.906,40.905,40.906h389.392c22.556,0,40.906-18.35,40.906-40.905
		V61.303c0-22.555-18.35-40.905-40.905-40.905H61.303z"/>
	<path style="fill:#0B6699;" d="M471.203,279.458c-5.633,0-10.199-4.566-10.199-10.199v-5.1c0-5.633,4.566-10.199,10.199-10.199
		c5.633,0,10.199,4.566,10.199,10.199v5.1C481.402,274.892,476.836,279.458,471.203,279.458z"/>
	<path style="fill:#0B6699;" d="M471.203,235.602c-5.633,0-10.199-4.566-10.199-10.199V63.235c0-5.633,4.566-10.199,10.199-10.199
		c5.633,0,10.199,4.566,10.199,10.199v162.167C481.402,231.034,476.836,235.602,471.203,235.602z"/>
	<path style="fill:#0B6699;" d="M425.307,140.893H86.693c-5.633,0-10.199,4.566-10.199,10.199v209.816
		c0,5.633,4.566,10.199,10.199,10.199h338.614c5.633,0,10.199-4.566,10.199-10.199V151.092
		C435.506,145.459,430.94,140.893,425.307,140.893z M96.892,173.608l112.886,99.034L96.892,342.59V173.608z M256,286.057
		L113.784,161.291h284.432L256,286.057z M225.809,286.706l23.465,20.586c1.925,1.688,4.325,2.532,6.726,2.532
		c2.401,0,4.802-0.845,6.726-2.532l23.465-20.586l103.291,64.003H122.518L225.809,286.706z M302.222,272.642l112.886-99.034v168.981
		L302.222,272.642z"/>
</g>
<g>
</g>
<g>
</g>
<g>
</g>
<g>
</g>
<g>
</g>
<g>
</g>
<g>
</g>
<g>
</g>
<g>
</g>
<g>
</g>
<g>
</g>
<g>
</g>
<g>
</g>
<g>
</g>
<g>
</g>
</svg>
